<svg width="392" height="241" viewBox="0 0 392 241" fill="none" xmlns="http://www.w3.org/2000/svg">
<path d="M205.95 3.05329C208.34 3.55012 210.596 4.55455 212.566 5.99897C214.771 7.74523 216.46 10.0601 217.453 12.6954C223.716 28.3677 229.98 44.0307 236.243 59.6838C243.175 77.0927 250.141 94.5048 257.142 111.92C260.79 121.05 264.42 130.19 268.125 139.302C268.913 141.166 269.319 143.169 269.319 145.194C269.319 147.218 268.913 149.221 268.125 151.085L236.291 230.504C234.183 235.761 230.364 239.029 224.75 239.881C217.765 240.932 211.517 237.485 208.993 231.356C203.02 216.666 197.178 201.928 191.29 187.2L161.346 112.28C152.48 90.0466 143.601 67.82 134.71 45.5998C131.761 38.2213 128.906 30.8051 125.825 23.4835C124.977 21.4928 124.575 19.3394 124.65 17.1759C124.724 15.0125 125.272 12.8919 126.255 10.9642C127.238 9.0366 128.632 7.34912 130.338 6.0213C132.044 4.69352 134.021 3.75786 136.128 3.28062C136.383 3.22378 136.629 3.12907 136.875 3.05329H205.95Z" fill="url(#paint0_linear_8_2)"/>
<path d="M81.8885 3.05329C82.6728 3.27114 83.4575 3.46057 84.2232 3.72576C86.2163 4.3487 88.0449 5.41145 89.5743 6.83585C91.1037 8.26023 92.2948 10.01 93.0605 11.9566C99.8977 28.9297 106.703 45.9153 113.477 62.9139C120.333 80.0509 127.189 97.1914 134.044 114.335C137.397 122.739 140.765 131.141 144.149 139.539C144.906 141.338 145.296 143.27 145.296 145.222C145.296 147.174 144.906 149.106 144.149 150.905C140.368 160.339 136.587 169.769 132.806 179.196C125.875 196.454 118.943 213.711 112.012 230.968C110.924 233.655 109.063 235.958 106.667 237.583C104.27 239.209 101.446 240.085 98.5524 240.099C95.4864 240.153 92.4789 239.257 89.9409 237.532C87.4032 235.808 85.4589 233.34 84.3742 230.466C77.966 214.203 71.425 197.988 64.9409 181.754C56.2514 159.773 47.5178 137.809 38.7399 115.86C29.8047 93.5196 20.8726 71.1763 11.9436 48.8295C8.55981 40.3714 5.20436 31.8943 1.77327 23.4456C0.274175 19.9254 0.201476 15.9586 1.57058 12.3855C2.93968 8.81247 5.64304 5.91382 9.10803 4.30355C10.3651 3.79446 11.657 3.37663 12.9739 3.05329H81.8885Z" fill="url(#paint1_linear_8_2)"/>
<path d="M390.972 147.501C389.079 153.895 386.245 159.928 383.835 166.094C376.86 183.635 369.846 201.167 362.793 218.69C361.177 222.706 359.531 226.712 357.963 230.747C356.858 233.504 354.956 235.866 352.495 237.526C350.037 239.186 347.139 240.069 344.173 240.06C341.207 240.051 338.315 239.15 335.867 237.475C333.419 235.799 331.526 233.426 330.44 230.662L299.834 154.112L273.369 87.991C264.73 66.4022 256.097 44.8164 247.47 23.2338C246.65 21.2604 246.272 19.1307 246.362 16.9949C246.453 14.859 247.01 12.7691 247.994 10.8725C248.979 8.97584 250.366 7.31866 252.059 6.01777C253.752 4.71692 255.709 3.80401 257.792 3.34347C258.075 3.27718 258.35 3.18247 258.633 3.09723H327.709C327.924 3.16353 328.133 3.24878 328.351 3.29614C330.774 3.80275 333.03 4.91383 334.909 6.52644C336.789 8.13905 338.235 10.201 339.109 12.5215C343.129 22.6245 347.155 32.6992 351.187 42.7454C361.742 69.1268 372.288 95.5083 382.823 121.89C385.593 128.842 388.674 135.671 390.943 142.813L390.972 147.501Z" fill="url(#paint2_linear_8_2)"/>
<defs>
<linearGradient id="paint0_linear_8_2" x1="113.934" y1="22.2996" x2="280.34" y2="188.361" gradientUnits="userSpaceOnUse">
<stop stop-color="#FF00A8"/>
<stop offset="1" stop-color="#6200C6"/>
</linearGradient>
<linearGradient id="paint1_linear_8_2" x1="-10.0606" y1="22.2427" x2="156.308" y2="188.267" gradientUnits="userSpaceOnUse">
<stop stop-color="#FF00A8"/>
<stop offset="1" stop-color="#6200C6"/>
</linearGradient>
<linearGradient id="paint2_linear_8_2" x1="235.665" y1="22.2393" x2="402.043" y2="188.273" gradientUnits="userSpaceOnUse">
<stop stop-color="#FF00A8"/>
<stop offset="1" stop-color="#6200C6"/>
</linearGradient>
</defs>
</svg>
